<mxfile host="Electron" agent="Mozilla/5.0 (Windows NT 10.0; Win64; x64) AppleWebKit/537.36 (KHTML, like Gecko) draw.io/24.7.8 Chrome/128.0.6613.36 Electron/32.0.1 Safari/537.36" version="24.7.8">
  <diagram id="C5RBs43oDa-KdzZeNtuy" name="Page-1">
    <mxGraphModel dx="1434" dy="844" grid="1" gridSize="10" guides="1" tooltips="1" connect="1" arrows="1" fold="1" page="1" pageScale="1" pageWidth="827" pageHeight="1169" math="0" shadow="0">
      <root>
        <mxCell id="WIyWlLk6GJQsqaUBKTNV-0" />
        <mxCell id="WIyWlLk6GJQsqaUBKTNV-1" parent="WIyWlLk6GJQsqaUBKTNV-0" />
        <mxCell id="O6v4FZPULpOE1MiSLXxU-9" style="edgeStyle=orthogonalEdgeStyle;rounded=0;orthogonalLoop=1;jettySize=auto;html=1;exitX=0.5;exitY=1;exitDx=0;exitDy=0;entryX=0.5;entryY=0;entryDx=0;entryDy=0;" edge="1" parent="WIyWlLk6GJQsqaUBKTNV-1" source="O6v4FZPULpOE1MiSLXxU-1" target="O6v4FZPULpOE1MiSLXxU-2">
          <mxGeometry relative="1" as="geometry" />
        </mxCell>
        <mxCell id="O6v4FZPULpOE1MiSLXxU-1" value="Mostrar mensaje: &quot;Por favor, ingrese una palabra&quot;" style="shape=parallelogram;perimeter=parallelogramPerimeter;whiteSpace=wrap;html=1;fixedSize=1;fillColor=#f8cecc;strokeColor=#b85450;" vertex="1" parent="WIyWlLk6GJQsqaUBKTNV-1">
          <mxGeometry x="236.25" y="240" width="287.5" height="60" as="geometry" />
        </mxCell>
        <mxCell id="O6v4FZPULpOE1MiSLXxU-10" style="edgeStyle=orthogonalEdgeStyle;rounded=0;orthogonalLoop=1;jettySize=auto;html=1;exitX=0.5;exitY=1;exitDx=0;exitDy=0;entryX=0.5;entryY=0;entryDx=0;entryDy=0;" edge="1" parent="WIyWlLk6GJQsqaUBKTNV-1" source="O6v4FZPULpOE1MiSLXxU-2" target="O6v4FZPULpOE1MiSLXxU-3">
          <mxGeometry relative="1" as="geometry" />
        </mxCell>
        <mxCell id="O6v4FZPULpOE1MiSLXxU-2" value="Definir la variable cantidad_letras y asignarle la Longitud de palabra_ingresada" style="rounded=1;whiteSpace=wrap;html=1;fillColor=#dae8fc;strokeColor=#6c8ebf;" vertex="1" parent="WIyWlLk6GJQsqaUBKTNV-1">
          <mxGeometry x="225" y="350" width="310" height="90" as="geometry" />
        </mxCell>
        <mxCell id="O6v4FZPULpOE1MiSLXxU-11" style="edgeStyle=orthogonalEdgeStyle;rounded=0;orthogonalLoop=1;jettySize=auto;html=1;exitX=0.5;exitY=1;exitDx=0;exitDy=0;entryX=0.5;entryY=0;entryDx=0;entryDy=0;" edge="1" parent="WIyWlLk6GJQsqaUBKTNV-1" source="O6v4FZPULpOE1MiSLXxU-3" target="O6v4FZPULpOE1MiSLXxU-4">
          <mxGeometry relative="1" as="geometry" />
        </mxCell>
        <mxCell id="O6v4FZPULpOE1MiSLXxU-3" value="Mostrar mensaje: &quot;La palabra ingresada tiene&quot;, cantidad_letras, &quot;letras.&quot;" style="shape=parallelogram;perimeter=parallelogramPerimeter;whiteSpace=wrap;html=1;fixedSize=1;fillColor=#f8cecc;strokeColor=#b85450;" vertex="1" parent="WIyWlLk6GJQsqaUBKTNV-1">
          <mxGeometry x="237.5" y="490" width="285" height="60" as="geometry" />
        </mxCell>
        <mxCell id="O6v4FZPULpOE1MiSLXxU-4" value="Fin" style="ellipse;whiteSpace=wrap;html=1;aspect=fixed;fillColor=#fff2cc;strokeColor=#d6b656;" vertex="1" parent="WIyWlLk6GJQsqaUBKTNV-1">
          <mxGeometry x="340" y="600" width="80" height="80" as="geometry" />
        </mxCell>
        <mxCell id="O6v4FZPULpOE1MiSLXxU-8" style="edgeStyle=orthogonalEdgeStyle;rounded=0;orthogonalLoop=1;jettySize=auto;html=1;exitX=0.5;exitY=1;exitDx=0;exitDy=0;entryX=0.5;entryY=0;entryDx=0;entryDy=0;" edge="1" parent="WIyWlLk6GJQsqaUBKTNV-1" source="O6v4FZPULpOE1MiSLXxU-5" target="O6v4FZPULpOE1MiSLXxU-1">
          <mxGeometry relative="1" as="geometry" />
        </mxCell>
        <mxCell id="O6v4FZPULpOE1MiSLXxU-5" value="Inicio" style="ellipse;whiteSpace=wrap;html=1;aspect=fixed;fillColor=#fff2cc;strokeColor=#d6b656;" vertex="1" parent="WIyWlLk6GJQsqaUBKTNV-1">
          <mxGeometry x="340" y="110" width="80" height="80" as="geometry" />
        </mxCell>
      </root>
    </mxGraphModel>
  </diagram>
</mxfile>
